<svg xmlns="http://www.w3.org/2000/svg" viewBox="0 0 512 512">
  <defs>
    <linearGradient id="grad" x1="0%" y1="0%" x2="100%" y2="100%">
      <stop offset="0%" style="stop-color:#0ea5e9;stop-opacity:1" />
      <stop offset="100%" style="stop-color:#0369a1;stop-opacity:1" />
    </linearGradient>
  </defs>
  <rect width="512" height="512" rx="96" fill="url(#grad)"/>
  <g fill="white">
    <!-- Shield shape -->
    <path d="M256 80c-60 0-120 20-160 50v140c0 80 60 150 160 190 100-40 160-110 160-190V130c-40-30-100-50-160-50z" fill-opacity="0.2"/>
    <path d="M256 100c-50 0-100 16-136 42v128c0 68 50 126 136 160 86-34 136-92 136-160V142c-36-26-86-42-136-42z" fill-opacity="0.3"/>
    <!-- AI brain/circuit pattern -->
    <circle cx="256" cy="230" r="60" fill-opacity="0.9"/>
    <circle cx="256" cy="230" r="40" fill="#0ea5e9"/>
    <circle cx="256" cy="230" r="20" fill="white"/>
    <!-- Connection lines -->
    <rect x="252" y="160" width="8" height="30" fill-opacity="0.8"/>
    <rect x="252" y="270" width="8" height="30" fill-opacity="0.8"/>
    <rect x="186" y="226" width="30" height="8" fill-opacity="0.8"/>
    <rect x="296" y="226" width="30" height="8" fill-opacity="0.8"/>
    <!-- Nodes -->
    <circle cx="256" cy="150" r="12" fill-opacity="0.9"/>
    <circle cx="256" cy="310" r="12" fill-opacity="0.9"/>
    <circle cx="176" cy="230" r="12" fill-opacity="0.9"/>
    <circle cx="336" cy="230" r="12" fill-opacity="0.9"/>
    <!-- Diagonal connections -->
    <rect x="195" y="170" width="8" height="40" transform="rotate(45 199 190)" fill-opacity="0.6"/>
    <rect x="309" y="170" width="8" height="40" transform="rotate(-45 313 190)" fill-opacity="0.6"/>
    <rect x="195" y="250" width="8" height="40" transform="rotate(-45 199 270)" fill-opacity="0.6"/>
    <rect x="309" y="250" width="8" height="40" transform="rotate(45 313 270)" fill-opacity="0.6"/>
    <!-- Corner nodes -->
    <circle cx="210" cy="175" r="8" fill-opacity="0.7"/>
    <circle cx="302" cy="175" r="8" fill-opacity="0.7"/>
    <circle cx="210" cy="285" r="8" fill-opacity="0.7"/>
    <circle cx="302" cy="285" r="8" fill-opacity="0.7"/>
  </g>
  <!-- Text -->
  <text x="256" y="400" font-family="system-ui, -apple-system, sans-serif" font-size="48" font-weight="600" fill="white" text-anchor="middle">SecureAgent</text>
</svg>
